<?xml version="1.0" encoding="utf-8"?>
<!-- Generator: Adobe Illustrator 23.1.1, SVG Export Plug-In . SVG Version: 6.00 Build 0)  -->
<svg version="1.1" id="Ebene_1" xmlns="http://www.w3.org/2000/svg" xmlns:xlink="http://www.w3.org/1999/xlink" x="0px" y="0px"
	 viewBox="0 0 89.219 100" enable-background="new 0 0 89.219 100" xml:space="preserve">
<g>
	<path id="Pfad_165" fill="#FFFFFF" d="M89.219,93.679h-3.145c-0.315,2.056-2.104,3.562-4.184,3.52
		c-1.138,0.024-2.236-0.425-3.03-1.241c-1.01-1.1-1.241-2.279-1.241-6.406s0.231-5.309,1.241-6.406
		c1.661-1.657,4.351-1.653,6.008,0.008c0.617,0.618,1.028,1.412,1.177,2.272h3.174c-0.721-4.1-3.549-6.319-7.329-6.319
		c-2.023-0.033-3.973,0.759-5.4,2.193c-2.02,2.02-1.991,4.3-1.991,8.253s-0.029,6.233,1.991,8.253
		c1.427,1.434,3.377,2.226,5.4,2.193C85.614,100.145,88.816,97.384,89.219,93.679 M71.619,79.28h-3.118v20.545h3.116L71.619,79.28z
		 M66.108,82.08v-2.8h-14.43v2.8h5.654v17.746h3.116V82.079L66.108,82.08z M51.363,93.68h-3.147
		c-0.315,2.056-2.104,3.562-4.184,3.52c-1.138,0.024-2.236-0.425-3.03-1.241c-1.01-1.1-1.241-2.279-1.241-6.406
		s0.231-5.309,1.241-6.406c1.66-1.657,4.349-1.655,6.006,0.005c0.618,0.619,1.029,1.413,1.179,2.275h3.174
		c-0.721-4.1-3.549-6.319-7.329-6.319c-2.023-0.033-3.973,0.759-5.4,2.193c-2.02,2.02-1.991,4.3-1.991,8.253
		s-0.029,6.233,1.991,8.253c1.427,1.434,3.377,2.226,5.4,2.193c3.724,0.146,6.926-2.614,7.329-6.319 M30.874,85.313
		c0,2.02-1.414,3.2-3.492,3.2h-4.617v-6.435h4.617c2.078,0,3.492,1.212,3.492,3.232 M34.625,99.824l-4.732-9.089
		c2.488-0.615,4.201-2.893,4.1-5.454c0-3.492-2.482-6-6.377-6h-7.967v20.545h3.116v-8.662h3.9l4.328,8.657L34.625,99.824z
		 M12.002,93.044H5.683l3.2-9.118L12.002,93.044z M17.602,99.825L10.071,79.28H7.558L0.027,99.825h3.318l1.414-4.126h8.108
		l1.414,4.126H17.602z"/>
	<path id="Pfad_166" fill="#FFFFFF" d="M45.56,21.835L60.127,46.08c-4.854,1.761-10.823,5.649-17.974,13.166l-0.087,0.089
		c-0.156,0.017-0.314,0.031-0.469,0.049c-6.355,0.751-12.791-0.331-18.551-3.119l20.582-34.121l1.061-1.819L45.56,21.835z
		 M77.216,54.135v-0.006l-4.83-8.04H72.38L44.689-0.005L0,74.087c26.52,2.679,39.687-11.921,41.7-14.372
		c0.107-0.111,0.215-0.218,0.322-0.33l0.042-0.044c0.194-0.018,0.385-0.031,0.581-0.052c20.923-2.281,31.1,10.014,33.671,13.733
		l0.64,1.066h12.246L77.216,54.135z"/>
</g>
</svg>
