<svg xmlns="http://www.w3.org/2000/svg" class="GIGABYTECiLogo" data-name="圖層 1" viewBox="0 0 160 20.92"><path d="M124.69 20.92V4.13h-5.18V0h15.88v4.13h-5.15v16.78h-5.56Zm-20.09 0v-7.89L96.86 0h6.42l4.09 8.41L111.43 0h6.42l-7.66 13.03v7.89zm-24.71 0V0h9.61c3.9 0 6.8 1.73 6.8 5.29 0 2.63-1.35 4.09-3.68 4.88v.07c2.78.56 4.24 2.06 4.24 4.62 0 4.99-4.39 6.05-8.15 6.05h-8.83Zm5.55-3.95h1.66c2.03 0 4.17-.3 4.17-2.44 0-2.29-2.18-2.48-4.09-2.48h-1.73v4.92Zm1.58-8.71c1.84 0 3.72-.45 3.72-2.22 0-1.91-1.8-2.1-3.64-2.1h-1.62v4.32zm-1.54 0h-.04zM71.43 20.92l-1.58-4.47H62l-1.65 4.47h-5.67L62.64 0h6.83l8.07 20.92h-6.12Zm-8.15-8.42h5.26l-2.48-8.18h-.07l-2.7 8.18Zm-19.91 8.42c-5.78 0-10.49-4.66-10.55-10.44C32.81 4.74 37.45.09 43.18.07h.38l8.56.04v4.47h-7.66c-3.72.3-5.74 2.74-5.74 5.9a5.885 5.885 0 0 0 5.59 5.63h1.62c.37 0 .67-.28.68-.65v-6.6h5.71v12.05h-8.93Zm-19.26 0V.08h5.56v20.84zm-13.52 0C4.79 20.93.07 16.28 0 10.48-.01 4.74 4.63.08 10.36.07h.38l8.56.04v4.47h-7.66c-3.72.3-5.74 2.74-5.74 5.9a5.864 5.864 0 0 0 5.6 5.63h1.6c.37 0 .67-.28.68-.65V8.85h5.74V20.9h-8.93Zm127.26-.04V0h14.75v3.94h-9.16v4.32h8.67v3.94h-8.67v4.73h9.5v3.94h-15.09Zm21.59-17.8V.68l-.68 2.4h-.6l-.6-2.4v2.4H157V0h.94l.56 2.1.56-2.1h.93v3.08h-.56Zm-4.36 0V.53h-.9V0h2.44v.53h-.9v2.55z" style="stroke-width:0;"></path></svg>